<mxfile host="app.diagrams.net" modified="2021-06-11T17:39:19.653Z" agent="5.0 (Windows NT 10.0; Win64; x64) AppleWebKit/537.36 (KHTML, like Gecko) Chrome/91.0.4472.77 Safari/537.36" etag="_z9t4_Am6CyohRer6s0V" version="14.7.7" type="github">
  <diagram id="_rvKmbxVbI_udA72DElq" name="Page-1">
    <mxGraphModel dx="1320" dy="484" grid="1" gridSize="10" guides="1" tooltips="1" connect="1" arrows="1" fold="1" page="1" pageScale="1" pageWidth="850" pageHeight="1100" math="0" shadow="0">
      <root>
        <mxCell id="0" />
        <mxCell id="1" parent="0" />
        <mxCell id="s4NP5iCA15NapL6FiEoA-1" value="" style="rounded=1;whiteSpace=wrap;html=1;" parent="1" vertex="1">
          <mxGeometry x="220" y="50" width="460" height="420" as="geometry" />
        </mxCell>
        <mxCell id="s4NP5iCA15NapL6FiEoA-2" value="Driver" style="ellipse;whiteSpace=wrap;html=1;" parent="1" vertex="1">
          <mxGeometry x="390" y="60" width="130" height="50" as="geometry" />
        </mxCell>
        <mxCell id="s4NP5iCA15NapL6FiEoA-3" value="Autotyper" style="ellipse;whiteSpace=wrap;html=1;" parent="1" vertex="1">
          <mxGeometry x="240" y="260" width="120" height="50" as="geometry" />
        </mxCell>
        <mxCell id="s4NP5iCA15NapL6FiEoA-4" value="EmailSender" style="ellipse;whiteSpace=wrap;html=1;" parent="1" vertex="1">
          <mxGeometry x="380" y="260" width="120" height="50" as="geometry" />
        </mxCell>
        <mxCell id="s4NP5iCA15NapL6FiEoA-5" value="Trascript" style="ellipse;whiteSpace=wrap;html=1;" parent="1" vertex="1">
          <mxGeometry x="520" y="260" width="120" height="50" as="geometry" />
        </mxCell>
        <mxCell id="s4NP5iCA15NapL6FiEoA-6" value="" style="endArrow=classic;html=1;exitX=0.5;exitY=0;exitDx=0;exitDy=0;entryX=0.223;entryY=1;entryDx=0;entryDy=0;entryPerimeter=0;" parent="1" source="s4NP5iCA15NapL6FiEoA-3" target="s4NP5iCA15NapL6FiEoA-2" edge="1">
          <mxGeometry width="50" height="50" relative="1" as="geometry">
            <mxPoint x="400" y="260" as="sourcePoint" />
            <mxPoint x="450" y="210" as="targetPoint" />
          </mxGeometry>
        </mxCell>
        <mxCell id="s4NP5iCA15NapL6FiEoA-7" value="" style="endArrow=classic;html=1;exitX=0.5;exitY=0;exitDx=0;exitDy=0;entryX=0.5;entryY=1;entryDx=0;entryDy=0;" parent="1" source="s4NP5iCA15NapL6FiEoA-4" target="s4NP5iCA15NapL6FiEoA-2" edge="1">
          <mxGeometry width="50" height="50" relative="1" as="geometry">
            <mxPoint x="400" y="260" as="sourcePoint" />
            <mxPoint x="450" y="210" as="targetPoint" />
          </mxGeometry>
        </mxCell>
        <mxCell id="s4NP5iCA15NapL6FiEoA-8" value="" style="endArrow=classic;html=1;exitX=0.383;exitY=-0.06;exitDx=0;exitDy=0;exitPerimeter=0;entryX=0.769;entryY=1;entryDx=0;entryDy=0;entryPerimeter=0;" parent="1" source="s4NP5iCA15NapL6FiEoA-5" target="s4NP5iCA15NapL6FiEoA-2" edge="1">
          <mxGeometry width="50" height="50" relative="1" as="geometry">
            <mxPoint x="400" y="260" as="sourcePoint" />
            <mxPoint x="450" y="210" as="targetPoint" />
          </mxGeometry>
        </mxCell>
        <mxCell id="s4NP5iCA15NapL6FiEoA-9" value="" style="rounded=1;whiteSpace=wrap;html=1;" parent="1" vertex="1">
          <mxGeometry x="50" y="590" width="680" height="330" as="geometry" />
        </mxCell>
        <mxCell id="s4NP5iCA15NapL6FiEoA-10" value="Driver" style="rounded=0;whiteSpace=wrap;html=1;fillColor=#e1d5e7;strokeColor=#9673a6;" parent="1" vertex="1">
          <mxGeometry x="110" y="720" width="580" height="60" as="geometry" />
        </mxCell>
        <mxCell id="s4NP5iCA15NapL6FiEoA-11" value="" style="rounded=1;whiteSpace=wrap;html=1;fillColor=#fff2cc;strokeColor=#d6b656;" parent="1" vertex="1">
          <mxGeometry x="110" y="830" width="120" height="60" as="geometry" />
        </mxCell>
        <mxCell id="s4NP5iCA15NapL6FiEoA-12" value="Voice Command" style="ellipse;whiteSpace=wrap;html=1;fillColor=#dae8fc;strokeColor=#6c8ebf;" parent="1" vertex="1">
          <mxGeometry x="340" y="600" width="120" height="80" as="geometry" />
        </mxCell>
        <mxCell id="s4NP5iCA15NapL6FiEoA-13" value="" style="endArrow=classic;html=1;exitX=0.5;exitY=1;exitDx=0;exitDy=0;entryX=0.5;entryY=0;entryDx=0;entryDy=0;" parent="1" source="s4NP5iCA15NapL6FiEoA-12" target="s4NP5iCA15NapL6FiEoA-10" edge="1">
          <mxGeometry width="50" height="50" relative="1" as="geometry">
            <mxPoint x="400" y="800" as="sourcePoint" />
            <mxPoint x="450" y="750" as="targetPoint" />
          </mxGeometry>
        </mxCell>
        <mxCell id="s4NP5iCA15NapL6FiEoA-14" value="" style="endArrow=classic;html=1;entryX=0.408;entryY=0.033;entryDx=0;entryDy=0;entryPerimeter=0;" parent="1" target="s4NP5iCA15NapL6FiEoA-11" edge="1">
          <mxGeometry width="50" height="50" relative="1" as="geometry">
            <mxPoint x="159" y="781" as="sourcePoint" />
            <mxPoint x="410" y="750" as="targetPoint" />
          </mxGeometry>
        </mxCell>
        <mxCell id="s4NP5iCA15NapL6FiEoA-15" value="input" style="text;html=1;strokeColor=none;fillColor=none;align=center;verticalAlign=middle;whiteSpace=wrap;rounded=0;" parent="1" vertex="1">
          <mxGeometry x="405" y="690" width="40" height="20" as="geometry" />
        </mxCell>
        <mxCell id="s4NP5iCA15NapL6FiEoA-16" value="Module 1" style="text;html=1;strokeColor=none;fillColor=none;align=center;verticalAlign=middle;whiteSpace=wrap;rounded=0;" parent="1" vertex="1">
          <mxGeometry x="140" y="850" width="60" height="20" as="geometry" />
        </mxCell>
        <mxCell id="s4NP5iCA15NapL6FiEoA-17" value="" style="rounded=1;whiteSpace=wrap;html=1;fillColor=#fff2cc;strokeColor=#d6b656;" parent="1" vertex="1">
          <mxGeometry x="245" y="830" width="120" height="60" as="geometry" />
        </mxCell>
        <mxCell id="s4NP5iCA15NapL6FiEoA-18" value="" style="rounded=1;whiteSpace=wrap;html=1;fillColor=#fff2cc;strokeColor=#d6b656;" parent="1" vertex="1">
          <mxGeometry x="380" y="830" width="120" height="60" as="geometry" />
        </mxCell>
        <mxCell id="s4NP5iCA15NapL6FiEoA-19" value="" style="rounded=1;whiteSpace=wrap;html=1;arcSize=25;fillColor=#fff2cc;strokeColor=#d6b656;" parent="1" vertex="1">
          <mxGeometry x="530" y="830" width="120" height="60" as="geometry" />
        </mxCell>
        <mxCell id="s4NP5iCA15NapL6FiEoA-20" value="" style="endArrow=classic;html=1;exitX=0.336;exitY=1.017;exitDx=0;exitDy=0;exitPerimeter=0;entryX=0.5;entryY=0;entryDx=0;entryDy=0;" parent="1" source="s4NP5iCA15NapL6FiEoA-10" target="s4NP5iCA15NapL6FiEoA-17" edge="1">
          <mxGeometry width="50" height="50" relative="1" as="geometry">
            <mxPoint x="169.76999999999998" y="791.02" as="sourcePoint" />
            <mxPoint x="168.96000000000004" y="841.98" as="targetPoint" />
          </mxGeometry>
        </mxCell>
        <mxCell id="s4NP5iCA15NapL6FiEoA-21" value="Module 2" style="text;html=1;strokeColor=none;fillColor=none;align=center;verticalAlign=middle;whiteSpace=wrap;rounded=0;" parent="1" vertex="1">
          <mxGeometry x="270" y="850" width="60" height="20" as="geometry" />
        </mxCell>
        <mxCell id="s4NP5iCA15NapL6FiEoA-22" value="Module 3" style="text;html=1;strokeColor=none;fillColor=none;align=center;verticalAlign=middle;whiteSpace=wrap;rounded=0;" parent="1" vertex="1">
          <mxGeometry x="405" y="850" width="60" height="20" as="geometry" />
        </mxCell>
        <mxCell id="s4NP5iCA15NapL6FiEoA-23" value="" style="endArrow=classic;html=1;entryX=0.5;entryY=0;entryDx=0;entryDy=0;" parent="1" target="s4NP5iCA15NapL6FiEoA-18" edge="1">
          <mxGeometry width="50" height="50" relative="1" as="geometry">
            <mxPoint x="440" y="783" as="sourcePoint" />
            <mxPoint x="315" y="840" as="targetPoint" />
          </mxGeometry>
        </mxCell>
        <mxCell id="s4NP5iCA15NapL6FiEoA-26" value="" style="endArrow=classic;html=1;exitX=0.834;exitY=1.067;exitDx=0;exitDy=0;exitPerimeter=0;" parent="1" source="s4NP5iCA15NapL6FiEoA-10" edge="1">
          <mxGeometry width="50" height="50" relative="1" as="geometry">
            <mxPoint x="450" y="793" as="sourcePoint" />
            <mxPoint x="594" y="830" as="targetPoint" />
            <Array as="points">
              <mxPoint x="594" y="820" />
            </Array>
          </mxGeometry>
        </mxCell>
        <mxCell id="s4NP5iCA15NapL6FiEoA-27" value="Module 4" style="text;html=1;strokeColor=none;fillColor=none;align=center;verticalAlign=middle;whiteSpace=wrap;rounded=0;" parent="1" vertex="1">
          <mxGeometry x="560" y="850" width="60" height="20" as="geometry" />
        </mxCell>
        <mxCell id="s4NP5iCA15NapL6FiEoA-36" value="" style="rounded=0;whiteSpace=wrap;html=1;" parent="1" vertex="1">
          <mxGeometry x="120" y="1110" width="650" height="380" as="geometry" />
        </mxCell>
        <mxCell id="s4NP5iCA15NapL6FiEoA-37" value="Command:&lt;br&gt;Auto Typer" style="ellipse;whiteSpace=wrap;html=1;fillColor=#dae8fc;strokeColor=#6c8ebf;" parent="1" vertex="1">
          <mxGeometry x="387.5" y="1120" width="105" height="70" as="geometry" />
        </mxCell>
        <mxCell id="s4NP5iCA15NapL6FiEoA-40" value="Speech Recognize" style="rounded=1;whiteSpace=wrap;html=1;fillColor=#fff2cc;strokeColor=#d6b656;" parent="1" vertex="1">
          <mxGeometry x="190" y="1260" width="120" height="40" as="geometry" />
        </mxCell>
        <mxCell id="s4NP5iCA15NapL6FiEoA-43" value="Converts to text" style="rounded=1;whiteSpace=wrap;html=1;fillColor=#fff2cc;strokeColor=#d6b656;" parent="1" vertex="1">
          <mxGeometry x="330" y="1260" width="120" height="40" as="geometry" />
        </mxCell>
        <mxCell id="s4NP5iCA15NapL6FiEoA-45" value="" style="endArrow=classic;html=1;entryX=0;entryY=0.5;entryDx=0;entryDy=0;" parent="1" target="s4NP5iCA15NapL6FiEoA-43" edge="1">
          <mxGeometry width="50" height="50" relative="1" as="geometry">
            <mxPoint x="310" y="1280" as="sourcePoint" />
            <mxPoint x="370" y="1300" as="targetPoint" />
          </mxGeometry>
        </mxCell>
        <mxCell id="s4NP5iCA15NapL6FiEoA-46" value="Driver" style="text;html=1;strokeColor=none;fillColor=none;align=center;verticalAlign=middle;whiteSpace=wrap;rounded=0;" parent="1" vertex="1">
          <mxGeometry x="180" y="1230" width="40" height="20" as="geometry" />
        </mxCell>
        <mxCell id="s4NP5iCA15NapL6FiEoA-47" value="Match with configured&lt;br&gt;command" style="rounded=1;whiteSpace=wrap;html=1;fillColor=#fff2cc;strokeColor=#d6b656;" parent="1" vertex="1">
          <mxGeometry x="470" y="1260" width="120" height="40" as="geometry" />
        </mxCell>
        <mxCell id="s4NP5iCA15NapL6FiEoA-49" value="" style="endArrow=classic;html=1;exitX=1;exitY=0.5;exitDx=0;exitDy=0;entryX=0;entryY=0.5;entryDx=0;entryDy=0;" parent="1" source="s4NP5iCA15NapL6FiEoA-43" target="s4NP5iCA15NapL6FiEoA-47" edge="1">
          <mxGeometry width="50" height="50" relative="1" as="geometry">
            <mxPoint x="380" y="1210" as="sourcePoint" />
            <mxPoint x="430" y="1160" as="targetPoint" />
          </mxGeometry>
        </mxCell>
        <mxCell id="s4NP5iCA15NapL6FiEoA-58" value="" style="edgeStyle=orthogonalEdgeStyle;rounded=0;orthogonalLoop=1;jettySize=auto;html=1;entryX=0;entryY=0;entryDx=470;entryDy=65;entryPerimeter=0;" parent="1" source="s4NP5iCA15NapL6FiEoA-50" target="s4NP5iCA15NapL6FiEoA-54" edge="1">
          <mxGeometry relative="1" as="geometry" />
        </mxCell>
        <mxCell id="s4NP5iCA15NapL6FiEoA-50" value="Handle" style="rounded=1;whiteSpace=wrap;html=1;fillColor=#d5e8d4;strokeColor=#82b366;" parent="1" vertex="1">
          <mxGeometry x="610" y="1260" width="110" height="40" as="geometry" />
        </mxCell>
        <mxCell id="s4NP5iCA15NapL6FiEoA-51" value="" style="endArrow=classic;html=1;exitX=1;exitY=0.5;exitDx=0;exitDy=0;entryX=0;entryY=0.5;entryDx=0;entryDy=0;" parent="1" source="s4NP5iCA15NapL6FiEoA-47" target="s4NP5iCA15NapL6FiEoA-50" edge="1">
          <mxGeometry width="50" height="50" relative="1" as="geometry">
            <mxPoint x="400" y="1320" as="sourcePoint" />
            <mxPoint x="450" y="1270" as="targetPoint" />
          </mxGeometry>
        </mxCell>
        <mxCell id="s4NP5iCA15NapL6FiEoA-52" value="" style="rounded=1;whiteSpace=wrap;html=1;strokeColor=#d79b00;fillColor=none;" parent="1" vertex="1">
          <mxGeometry x="160" y="1220" width="590" height="120" as="geometry" />
        </mxCell>
        <mxCell id="s4NP5iCA15NapL6FiEoA-54" value="" style="shape=cube;whiteSpace=wrap;html=1;boundedLbl=1;backgroundOutline=1;darkOpacity=0.05;darkOpacity2=0.1;fillColor=none;" parent="1" vertex="1">
          <mxGeometry x="160" y="1360" width="470" height="110" as="geometry" />
        </mxCell>
        <mxCell id="s4NP5iCA15NapL6FiEoA-63" value="" style="edgeStyle=orthogonalEdgeStyle;rounded=0;orthogonalLoop=1;jettySize=auto;html=1;" parent="1" source="s4NP5iCA15NapL6FiEoA-55" target="s4NP5iCA15NapL6FiEoA-56" edge="1">
          <mxGeometry relative="1" as="geometry" />
        </mxCell>
        <mxCell id="s4NP5iCA15NapL6FiEoA-55" value="Collects area as co-ordinates" style="rounded=1;whiteSpace=wrap;html=1;fillColor=none;" parent="1" vertex="1">
          <mxGeometry x="480" y="1400" width="120" height="60" as="geometry" />
        </mxCell>
        <mxCell id="s4NP5iCA15NapL6FiEoA-64" value="" style="edgeStyle=orthogonalEdgeStyle;rounded=0;orthogonalLoop=1;jettySize=auto;html=1;" parent="1" source="s4NP5iCA15NapL6FiEoA-56" target="s4NP5iCA15NapL6FiEoA-57" edge="1">
          <mxGeometry relative="1" as="geometry" />
        </mxCell>
        <mxCell id="s4NP5iCA15NapL6FiEoA-56" value="Tesseract OCR&lt;br&gt;recognize text" style="rounded=1;whiteSpace=wrap;html=1;fillColor=none;" parent="1" vertex="1">
          <mxGeometry x="340" y="1400" width="120" height="60" as="geometry" />
        </mxCell>
        <mxCell id="s4NP5iCA15NapL6FiEoA-57" value="Type words to document" style="rounded=1;whiteSpace=wrap;html=1;fillColor=none;" parent="1" vertex="1">
          <mxGeometry x="200" y="1400" width="120" height="60" as="geometry" />
        </mxCell>
        <mxCell id="s4NP5iCA15NapL6FiEoA-61" value="Module: AutoTyper" style="text;html=1;strokeColor=none;fillColor=none;align=center;verticalAlign=middle;whiteSpace=wrap;rounded=0;" parent="1" vertex="1">
          <mxGeometry x="320" y="1360" width="150" height="20" as="geometry" />
        </mxCell>
        <mxCell id="s4NP5iCA15NapL6FiEoA-62" value="" style="endArrow=classic;html=1;exitX=0.5;exitY=1;exitDx=0;exitDy=0;entryX=0.477;entryY=-0.009;entryDx=0;entryDy=0;entryPerimeter=0;" parent="1" source="s4NP5iCA15NapL6FiEoA-37" target="s4NP5iCA15NapL6FiEoA-52" edge="1">
          <mxGeometry width="50" height="50" relative="1" as="geometry">
            <mxPoint x="430" y="1290" as="sourcePoint" />
            <mxPoint x="438" y="1210" as="targetPoint" />
          </mxGeometry>
        </mxCell>
        <mxCell id="-9m50heLHAJEbFhrCl9v-2" value="" style="rounded=0;whiteSpace=wrap;html=1;" vertex="1" parent="1">
          <mxGeometry x="110" y="1570" width="650" height="380" as="geometry" />
        </mxCell>
        <mxCell id="-9m50heLHAJEbFhrCl9v-3" value="Command:&lt;br&gt;SendEmail" style="ellipse;whiteSpace=wrap;html=1;fillColor=#dae8fc;strokeColor=#6c8ebf;" vertex="1" parent="1">
          <mxGeometry x="377.5" y="1580" width="105" height="70" as="geometry" />
        </mxCell>
        <mxCell id="-9m50heLHAJEbFhrCl9v-4" value="Speech Recognize" style="rounded=1;whiteSpace=wrap;html=1;fillColor=#fff2cc;strokeColor=#d6b656;" vertex="1" parent="1">
          <mxGeometry x="180" y="1720" width="120" height="40" as="geometry" />
        </mxCell>
        <mxCell id="-9m50heLHAJEbFhrCl9v-5" value="Converts to text" style="rounded=1;whiteSpace=wrap;html=1;fillColor=#fff2cc;strokeColor=#d6b656;" vertex="1" parent="1">
          <mxGeometry x="320" y="1720" width="120" height="40" as="geometry" />
        </mxCell>
        <mxCell id="-9m50heLHAJEbFhrCl9v-6" value="" style="endArrow=classic;html=1;entryX=0;entryY=0.5;entryDx=0;entryDy=0;" edge="1" parent="1" target="-9m50heLHAJEbFhrCl9v-5">
          <mxGeometry width="50" height="50" relative="1" as="geometry">
            <mxPoint x="300" y="1740" as="sourcePoint" />
            <mxPoint x="360" y="1760" as="targetPoint" />
          </mxGeometry>
        </mxCell>
        <mxCell id="-9m50heLHAJEbFhrCl9v-7" value="Driver" style="text;html=1;strokeColor=none;fillColor=none;align=center;verticalAlign=middle;whiteSpace=wrap;rounded=0;" vertex="1" parent="1">
          <mxGeometry x="170" y="1690" width="40" height="20" as="geometry" />
        </mxCell>
        <mxCell id="-9m50heLHAJEbFhrCl9v-8" value="Match with configured&lt;br&gt;command" style="rounded=1;whiteSpace=wrap;html=1;fillColor=#fff2cc;strokeColor=#d6b656;" vertex="1" parent="1">
          <mxGeometry x="460" y="1720" width="120" height="40" as="geometry" />
        </mxCell>
        <mxCell id="-9m50heLHAJEbFhrCl9v-9" value="" style="endArrow=classic;html=1;exitX=1;exitY=0.5;exitDx=0;exitDy=0;entryX=0;entryY=0.5;entryDx=0;entryDy=0;" edge="1" parent="1" source="-9m50heLHAJEbFhrCl9v-5" target="-9m50heLHAJEbFhrCl9v-8">
          <mxGeometry width="50" height="50" relative="1" as="geometry">
            <mxPoint x="370" y="1670" as="sourcePoint" />
            <mxPoint x="420" y="1620" as="targetPoint" />
          </mxGeometry>
        </mxCell>
        <mxCell id="-9m50heLHAJEbFhrCl9v-10" value="" style="edgeStyle=orthogonalEdgeStyle;rounded=0;orthogonalLoop=1;jettySize=auto;html=1;entryX=0;entryY=0;entryDx=470;entryDy=65;entryPerimeter=0;" edge="1" parent="1" source="-9m50heLHAJEbFhrCl9v-11" target="-9m50heLHAJEbFhrCl9v-14">
          <mxGeometry relative="1" as="geometry" />
        </mxCell>
        <mxCell id="-9m50heLHAJEbFhrCl9v-11" value="Handle" style="rounded=1;whiteSpace=wrap;html=1;fillColor=#d5e8d4;strokeColor=#82b366;" vertex="1" parent="1">
          <mxGeometry x="600" y="1720" width="110" height="40" as="geometry" />
        </mxCell>
        <mxCell id="-9m50heLHAJEbFhrCl9v-12" value="" style="endArrow=classic;html=1;exitX=1;exitY=0.5;exitDx=0;exitDy=0;entryX=0;entryY=0.5;entryDx=0;entryDy=0;" edge="1" parent="1" source="-9m50heLHAJEbFhrCl9v-8" target="-9m50heLHAJEbFhrCl9v-11">
          <mxGeometry width="50" height="50" relative="1" as="geometry">
            <mxPoint x="390" y="1780" as="sourcePoint" />
            <mxPoint x="440" y="1730" as="targetPoint" />
          </mxGeometry>
        </mxCell>
        <mxCell id="-9m50heLHAJEbFhrCl9v-13" value="" style="rounded=1;whiteSpace=wrap;html=1;strokeColor=#d79b00;fillColor=none;" vertex="1" parent="1">
          <mxGeometry x="150" y="1680" width="590" height="120" as="geometry" />
        </mxCell>
        <mxCell id="-9m50heLHAJEbFhrCl9v-14" value="" style="shape=cube;whiteSpace=wrap;html=1;boundedLbl=1;backgroundOutline=1;darkOpacity=0.05;darkOpacity2=0.1;fillColor=none;" vertex="1" parent="1">
          <mxGeometry x="150" y="1820" width="470" height="110" as="geometry" />
        </mxCell>
        <mxCell id="-9m50heLHAJEbFhrCl9v-15" value="" style="edgeStyle=orthogonalEdgeStyle;rounded=0;orthogonalLoop=1;jettySize=auto;html=1;" edge="1" parent="1" source="-9m50heLHAJEbFhrCl9v-16" target="-9m50heLHAJEbFhrCl9v-18">
          <mxGeometry relative="1" as="geometry" />
        </mxCell>
        <mxCell id="-9m50heLHAJEbFhrCl9v-16" value="Collects area as co-ordinates" style="rounded=1;whiteSpace=wrap;html=1;fillColor=none;" vertex="1" parent="1">
          <mxGeometry x="470" y="1860" width="120" height="60" as="geometry" />
        </mxCell>
        <mxCell id="-9m50heLHAJEbFhrCl9v-17" value="" style="edgeStyle=orthogonalEdgeStyle;rounded=0;orthogonalLoop=1;jettySize=auto;html=1;" edge="1" parent="1" source="-9m50heLHAJEbFhrCl9v-18" target="-9m50heLHAJEbFhrCl9v-19">
          <mxGeometry relative="1" as="geometry" />
        </mxCell>
        <mxCell id="-9m50heLHAJEbFhrCl9v-18" value="Tesseract OCR&lt;br&gt;recognize text" style="rounded=1;whiteSpace=wrap;html=1;fillColor=none;" vertex="1" parent="1">
          <mxGeometry x="330" y="1860" width="120" height="60" as="geometry" />
        </mxCell>
        <mxCell id="-9m50heLHAJEbFhrCl9v-19" value="Type words to document" style="rounded=1;whiteSpace=wrap;html=1;fillColor=none;" vertex="1" parent="1">
          <mxGeometry x="190" y="1860" width="120" height="60" as="geometry" />
        </mxCell>
        <mxCell id="-9m50heLHAJEbFhrCl9v-20" value="Module: AutoTyper" style="text;html=1;strokeColor=none;fillColor=none;align=center;verticalAlign=middle;whiteSpace=wrap;rounded=0;" vertex="1" parent="1">
          <mxGeometry x="310" y="1820" width="150" height="20" as="geometry" />
        </mxCell>
        <mxCell id="-9m50heLHAJEbFhrCl9v-21" value="" style="endArrow=classic;html=1;exitX=0.5;exitY=1;exitDx=0;exitDy=0;entryX=0.477;entryY=-0.009;entryDx=0;entryDy=0;entryPerimeter=0;" edge="1" parent="1" source="-9m50heLHAJEbFhrCl9v-3" target="-9m50heLHAJEbFhrCl9v-13">
          <mxGeometry width="50" height="50" relative="1" as="geometry">
            <mxPoint x="420" y="1750" as="sourcePoint" />
            <mxPoint x="428" y="1670" as="targetPoint" />
          </mxGeometry>
        </mxCell>
      </root>
    </mxGraphModel>
  </diagram>
</mxfile>
